<?xml version="1.0" standalone="no"?>
<!DOCTYPE svg PUBLIC "-//W3C//DTD SVG 20010904//EN"
 "http://www.w3.org/TR/2001/REC-SVG-20010904/DTD/svg10.dtd">
<svg version="1.0" xmlns="http://www.w3.org/2000/svg"
 width="3000.000000pt" height="3000.000000pt" viewBox="0 0 3000.000000 3000.000000"
 preserveAspectRatio="xMidYMid meet">
<metadata>
Created by potrace 1.14, written by Peter Selinger 2001-2017
</metadata>
<g transform="translate(0.000000,3000.000000) scale(0.100000,-0.100000)"
fill="#000000" stroke="none">
<path d="M26030 26954 c-803 -74 -1502 -176 -2200 -320 -1933 -400 -3729
-1104 -5425 -2126 -1208 -728 -2347 -1601 -3505 -2689 -937 -880 -2030 -2078
-3015 -3304 -115 -143 -228 -283 -251 -311 l-43 -51 -123 19 c-686 101 -1533
154 -2081 129 -668 -30 -1096 -102 -1523 -256 -676 -245 -1428 -908 -2118
-1869 -876 -1220 -1719 -3005 -2526 -5348 -114 -333 -127 -406 -94 -550 52
-227 215 -396 439 -453 73 -18 211 -19 285 -1 30 7 861 293 1846 634 985 342
1797 622 1803 622 14 0 4185 -4037 4189 -4056 2 -7 -234 -775 -524 -1706 -289
-931 -533 -1718 -540 -1748 -18 -74 -17 -213 1 -285 59 -223 235 -392 461
-440 149 -32 225 -17 549 106 1094 416 1934 779 2800 1209 1255 623 2154 1193
2905 1844 159 138 576 557 692 696 270 324 491 665 599 921 106 253 190 581
233 909 54 411 64 1008 26 1535 -32 447 -110 1052 -186 1445 -13 69 -24 130
-24 136 0 6 91 89 202 185 1530 1317 2800 2585 3804 3799 2628 3176 3979 6552
4198 10490 8 151 10 273 5 318 -16 147 -67 250 -173 358 -76 76 -172 132 -276
159 -67 18 -209 17 -410 -1z m-384 -1336 c-11 -154 -45 -469 -77 -718 -389
-3023 -1550 -5690 -3583 -8230 -917 -1145 -2045 -2306 -3441 -3541 -933 -825
-1880 -1604 -3737 -3071 -671 -531 -1646 -1308 -1943 -1549 -269 -218 -526
-419 -536 -419 -12 0 -3874 3744 -3873 3755 1 5 129 186 284 400 156 215 442
611 635 880 1016 1417 1633 2270 1988 2750 1587 2139 2908 3683 4247 4964
2767 2645 5730 4184 9140 4745 263 44 769 115 884 124 18 2 18 -4 12 -90z
m-15326 -8533 c298 -20 374 -27 386 -34 8 -4 -647 -919 -1697 -2376 -941
-1303 -1713 -2376 -1718 -2383 -6 -10 -2592 -915 -2597 -909 -2 3 52 144 196
512 368 939 745 1759 1132 2460 200 362 304 535 503 835 324 490 582 808 916
1135 244 238 502 436 695 533 265 133 677 215 1219 242 210 11 707 3 965 -15z
m7319 -6537 c62 -525 84 -955 70 -1378 -13 -406 -49 -666 -124 -914 -57 -189
-122 -313 -279 -535 -320 -451 -832 -926 -1496 -1387 -781 -542 -1870 -1122
-3134 -1668 -327 -142 -516 -220 -520 -215 -5 5 799 2590 811 2606 9 14 4644
3592 4654 3592 3 1 11 -45 18 -101z"/>
<path d="M22160 24080 c-518 -51 -991 -336 -1284 -774 -339 -508 -388 -1140
-131 -1701 289 -630 987 -1037 1676 -977 257 22 427 70 654 182 183 91 303
178 450 325 263 262 426 571 496 938 34 180 29 449 -11 647 -175 856 -976
1446 -1850 1360z m411 -619 c474 -105 829 -508 867 -985 28 -351 -83 -657
-328 -906 -175 -178 -351 -274 -595 -325 -109 -23 -313 -24 -428 -1 -344 67
-628 281 -782 591 -109 218 -145 436 -111 665 46 304 207 574 454 761 138 105
366 197 542 219 103 12 277 4 381 -19z"/>
<path d="M19340 21159 c-212 -19 -435 -85 -630 -185 -178 -92 -295 -178 -445
-329 -274 -274 -442 -608 -496 -985 -18 -124 -15 -394 5 -514 101 -599 496
-1097 1042 -1315 232 -93 399 -125 649 -125 206 0 323 16 503 70 654 198 1135
757 1233 1434 16 113 16 374 0 480 -76 494 -336 909 -741 1185 -103 70 -316
175 -425 208 -232 72 -464 97 -695 76z m398 -620 c406 -82 738 -402 842 -811
115 -447 -55 -916 -435 -1203 -81 -62 -261 -149 -368 -180 -517 -146 -1068 95
-1302 570 -67 135 -99 246 -115 390 -35 332 78 657 314 903 282 294 664 413
1064 331z"/>
<path d="M16484 18199 c-634 -56 -1191 -456 -1449 -1037 -257 -580 -178 -1252
205 -1752 338 -441 876 -692 1428 -667 457 21 849 194 1172 517 471 471 633
1181 410 1806 -200 564 -680 980 -1273 1104 -80 17 -339 43 -387 39 -8 -1 -56
-5 -106 -10z m437 -633 c299 -78 556 -283 696 -553 96 -186 128 -319 127 -533
0 -111 -6 -167 -22 -238 -154 -669 -846 -1059 -1490 -838 -373 128 -652 452
-726 845 -18 94 -21 294 -6 388 39 236 150 452 325 628 146 148 330 253 533
305 166 43 390 41 563 -4z"/>
</g>
</svg>
